<?xml version="1.0" encoding="UTF-8"?><svg id="Layer_1" xmlns="http://www.w3.org/2000/svg" viewBox="0 0 299.36 74.23"><defs><style>.cls-1{fill:#fff;}.cls-2{fill:#bf5d2b;}</style></defs><polygon class="cls-1" points="12.99 24.42 9.62 24.42 2.09 45.34 4.72 45.34 11.31 25.17 17.86 45.34 20.52 45.34 12.99 24.42"/><polygon class="cls-1" points="100.21 24.42 96.83 24.42 89.31 45.34 91.93 45.34 98.52 25.17 105.08 45.34 107.73 45.34 100.21 24.42"/><polygon class="cls-1" points="199.57 24.42 196.2 24.42 188.67 45.34 191.29 45.34 197.91 25.17 204.44 45.34 207.09 45.34 199.57 24.42"/><path class="cls-1" d="m28.14,45.34v-20.92h2.59v19.17h9.15v1.78h-11.74v-.03Z"/><path class="cls-1" d="m47.09,45.34v-20.92h11.52v1.78h-8.9v7.28h8.46v1.78h-8.46v8.31h9.34v1.84h-11.96v-.06Z"/><path class="cls-1" d="m80.25,45.34l-3.93-6.5c-.59-1-1.28-2.62-1.28-2.62,0,0-.62,1.62-1.25,2.69l-3.93,6.46h-2.84l6.53-10.59-6.28-10.37h2.81l3.78,6.21c.62,1,1.25,2.65,1.25,2.65,0,0,.62-1.62,1.25-2.65l3.78-6.21h2.84l-6.37,10.3,6.53,10.62h-2.87Z"/><path class="cls-1" d="m128.15,45.34l-8.24-14.08c-.5-.84-1.53-3.09-1.53-3.09v17.17h-2.4v-20.92h2.25l8.24,14.11c.78,1.28,1.53,3.06,1.53,3.06v-17.17h2.4v20.92h-2.28.03Z"/><path class="cls-1" d="m148.79,45.34h-6.87v-20.92h6.87c7.65,0,8.74,4.53,8.74,10.52s-1.12,10.4-8.74,10.4Zm0-19.17h-4.31v17.3h4.31c5.84,0,6.03-3.81,6.03-8.68s-.19-8.68-6.03-8.68h0v.06Z"/><path class="cls-1" d="m179.43,45.34s-3.34-8.81-3.34-8.77h-6.06v8.77h-2.59v-20.92h8.09c4.75,0,5.31,2.78,5.31,6.03,0,2.65-.91,5.53-2.15,5.9l3.65,8.99h-2.9,0Zm-4.22-19.14h-5.15v8.37h6.06c1.44,0,2.12-1.84,2.12-4.12s-.56-4.25-3-4.25h-.03Z"/><path class="cls-1" d="m286.65,42.2h-8.83l-4.45-7.67h23.07v37.19h-9.79v-29.52Zm-2.05-18.8c0-3.58,2.73-6.08,6.5-6.08s6.5,2.5,6.5,6.08-2.73,5.98-6.5,5.98-6.5-2.38-6.5-5.98Z"/><path class="cls-1" d="m278.23,56.96h-8.23l-21.34-36.31,4.14-6.96,25.43,43.27Zm-37.43-23.11l13.58,23.11h8.22l-17.67-30.05-4.13,6.94Zm9.12-25.09l-4.09-6.95-4.15,6.94-21.53,36.04h8.25l17.37-29.08,4.15-6.94Z"/><circle class="cls-2" cx="291" cy="23.35" r="6.66"/></svg>